{
    "asset" : {
        "generator" : "Khronos glTF Blender I/O v1.0.5",
        "version" : "2.0"
    },
    "scene" : 0,
    "scenes" : [
        {
            "name" : "Scene",
            "nodes" : [
                4
            ]
        }
    ],
    "nodes" : [
        {
            "mesh" : 0,
            "name" : "LockPart1",
            "translation" : [
                3.733225094038062e-05,
                1.0821431875228882,
                0
            ]
        },
        {
            "children" : [
                0
            ],
            "mesh" : 1,
            "name" : "DoorLeaf1",
            "scale" : [
                1.9354140758514404,
                1.9354140758514404,
                1.9354140758514404
            ]
        },
        {
            "mesh" : 2,
            "name" : "LockPart2",
            "translation" : [
                3.733225094038062e-05,
                1.0821431875228882,
                0
            ]
        },
        {
            "children" : [
                2
            ],
            "mesh" : 3,
            "name" : "DoorLeaf2",
            "scale" : [
                1.9354140758514404,
                1.9354140758514404,
                1.9354140758514404
            ]
        },
        {
            "children" : [
                1,
                3
            ],
            "name" : "Door",
            "scale" : [
                0.5166851878166199,
                0.5166851878166199,
                0.5166851878166199
            ]
        }
    ],
    "animations" : [
        {
            "channels" : [
                {
                    "sampler" : 0,
                    "target" : {
                        "node" : 2,
                        "path" : "translation"
                    }
                },
                {
                    "sampler" : 1,
                    "target" : {
                        "node" : 2,
                        "path" : "rotation"
                    }
                }
            ],
            "name" : "LockPart2Action",
            "samplers" : [
                {
                    "input" : 16,
                    "interpolation" : "STEP",
                    "output" : 17
                },
                {
                    "input" : 18,
                    "interpolation" : "LINEAR",
                    "output" : 19
                }
            ]
        },
        {
            "channels" : [
                {
                    "sampler" : 0,
                    "target" : {
                        "node" : 1,
                        "path" : "translation"
                    }
                },
                {
                    "sampler" : 1,
                    "target" : {
                        "node" : 1,
                        "path" : "rotation"
                    }
                }
            ],
            "name" : "DoorLeaf1Action",
            "samplers" : [
                {
                    "input" : 20,
                    "interpolation" : "LINEAR",
                    "output" : 21
                },
                {
                    "input" : 16,
                    "interpolation" : "STEP",
                    "output" : 22
                }
            ]
        },
        {
            "channels" : [
                {
                    "sampler" : 0,
                    "target" : {
                        "node" : 0,
                        "path" : "translation"
                    }
                },
                {
                    "sampler" : 1,
                    "target" : {
                        "node" : 0,
                        "path" : "rotation"
                    }
                }
            ],
            "name" : "LockPart1Action",
            "samplers" : [
                {
                    "input" : 16,
                    "interpolation" : "STEP",
                    "output" : 23
                },
                {
                    "input" : 18,
                    "interpolation" : "LINEAR",
                    "output" : 24
                }
            ]
        }
    ],
    "meshes" : [
        {
            "name" : "Cube.004",
            "primitives" : [
                {
                    "attributes" : {
                        "POSITION" : 0,
                        "NORMAL" : 1,
                        "TEXCOORD_0" : 2
                    },
                    "indices" : 3
                }
            ]
        },
        {
            "name" : "Cube.003",
            "primitives" : [
                {
                    "attributes" : {
                        "POSITION" : 4,
                        "NORMAL" : 5,
                        "TEXCOORD_0" : 6
                    },
                    "indices" : 7
                }
            ]
        },
        {
            "name" : "Cube.002",
            "primitives" : [
                {
                    "attributes" : {
                        "POSITION" : 8,
                        "NORMAL" : 9,
                        "TEXCOORD_0" : 10
                    },
                    "indices" : 11
                }
            ]
        },
        {
            "name" : "Cube.001",
            "primitives" : [
                {
                    "attributes" : {
                        "POSITION" : 12,
                        "NORMAL" : 13,
                        "TEXCOORD_0" : 14
                    },
                    "indices" : 15
                }
            ]
        }
    ],
    "accessors" : [
        {
            "bufferView" : 0,
            "componentType" : 5126,
            "count" : 84,
            "max" : [
                0.19996272027492523,
                0.2000647783279419,
                0.05000000819563866
            ],
            "min" : [
                -0.05172980949282646,
                -0.18821340799331665,
                -0.05000000819563866
            ],
            "type" : "VEC3"
        },
        {
            "bufferView" : 1,
            "componentType" : 5126,
            "count" : 84,
            "type" : "VEC3"
        },
        {
            "bufferView" : 2,
            "componentType" : 5126,
            "count" : 84,
            "type" : "VEC2"
        },
        {
            "bufferView" : 3,
            "componentType" : 5123,
            "count" : 108,
            "type" : "SCALAR"
        },
        {
            "bufferView" : 4,
            "componentType" : 5126,
            "count" : 30,
            "max" : [
                1,
                2.1644158363342285,
                0.029999999329447746
            ],
            "min" : [
                -0.051647722721099854,
                0,
                -0.029999999329447746
            ],
            "type" : "VEC3"
        },
        {
            "bufferView" : 5,
            "componentType" : 5126,
            "count" : 30,
            "type" : "VEC3"
        },
        {
            "bufferView" : 6,
            "componentType" : 5126,
            "count" : 30,
            "type" : "VEC2"
        },
        {
            "bufferView" : 7,
            "componentType" : 5123,
            "count" : 60,
            "type" : "SCALAR"
        },
        {
            "bufferView" : 8,
            "componentType" : 5126,
            "count" : 84,
            "max" : [
                0.05205497518181801,
                0.18833565711975098,
                0.05000000819563866
            ],
            "min" : [
                -0.20003728568553925,
                -0.19993525743484497,
                -0.05000000819563866
            ],
            "type" : "VEC3"
        },
        {
            "bufferView" : 9,
            "componentType" : 5126,
            "count" : 84,
            "type" : "VEC3"
        },
        {
            "bufferView" : 10,
            "componentType" : 5126,
            "count" : 84,
            "type" : "VEC2"
        },
        {
            "bufferView" : 11,
            "componentType" : 5123,
            "count" : 108,
            "type" : "SCALAR"
        },
        {
            "bufferView" : 12,
            "componentType" : 5126,
            "count" : 30,
            "max" : [
                0.05164781212806702,
                2.1644158363342285,
                0.029999999329447746
            ],
            "min" : [
                -1,
                0,
                -0.029999999329447746
            ],
            "type" : "VEC3"
        },
        {
            "bufferView" : 13,
            "componentType" : 5126,
            "count" : 30,
            "type" : "VEC3"
        },
        {
            "bufferView" : 14,
            "componentType" : 5126,
            "count" : 30,
            "type" : "VEC2"
        },
        {
            "bufferView" : 15,
            "componentType" : 5123,
            "count" : 60,
            "type" : "SCALAR"
        },
        {
            "bufferView" : 16,
            "componentType" : 5126,
            "count" : 1,
            "max" : [
                0.041666666666666664
            ],
            "min" : [
                0.041666666666666664
            ],
            "type" : "SCALAR"
        },
        {
            "bufferView" : 17,
            "componentType" : 5126,
            "count" : 1,
            "type" : "VEC3"
        },
        {
            "bufferView" : 18,
            "componentType" : 5126,
            "count" : 10,
            "max" : [
                0.4166666666666667
            ],
            "min" : [
                0.041666666666666664
            ],
            "type" : "SCALAR"
        },
        {
            "bufferView" : 19,
            "componentType" : 5126,
            "count" : 10,
            "type" : "VEC4"
        },
        {
            "bufferView" : 20,
            "componentType" : 5126,
            "count" : 30,
            "max" : [
                1.25
            ],
            "min" : [
                0.041666666666666664
            ],
            "type" : "SCALAR"
        },
        {
            "bufferView" : 21,
            "componentType" : 5126,
            "count" : 30,
            "type" : "VEC3"
        },
        {
            "bufferView" : 22,
            "componentType" : 5126,
            "count" : 1,
            "type" : "VEC4"
        },
        {
            "bufferView" : 23,
            "componentType" : 5126,
            "count" : 1,
            "type" : "VEC3"
        },
        {
            "bufferView" : 24,
            "componentType" : 5126,
            "count" : 10,
            "type" : "VEC4"
        }
    ],
    "bufferViews" : [
        {
            "buffer" : 0,
            "byteLength" : 1008,
            "byteOffset" : 0
        },
        {
            "buffer" : 0,
            "byteLength" : 1008,
            "byteOffset" : 1008
        },
        {
            "buffer" : 0,
            "byteLength" : 672,
            "byteOffset" : 2016
        },
        {
            "buffer" : 0,
            "byteLength" : 216,
            "byteOffset" : 2688
        },
        {
            "buffer" : 0,
            "byteLength" : 360,
            "byteOffset" : 2904
        },
        {
            "buffer" : 0,
            "byteLength" : 360,
            "byteOffset" : 3264
        },
        {
            "buffer" : 0,
            "byteLength" : 240,
            "byteOffset" : 3624
        },
        {
            "buffer" : 0,
            "byteLength" : 120,
            "byteOffset" : 3864
        },
        {
            "buffer" : 0,
            "byteLength" : 1008,
            "byteOffset" : 3984
        },
        {
            "buffer" : 0,
            "byteLength" : 1008,
            "byteOffset" : 4992
        },
        {
            "buffer" : 0,
            "byteLength" : 672,
            "byteOffset" : 6000
        },
        {
            "buffer" : 0,
            "byteLength" : 216,
            "byteOffset" : 6672
        },
        {
            "buffer" : 0,
            "byteLength" : 360,
            "byteOffset" : 6888
        },
        {
            "buffer" : 0,
            "byteLength" : 360,
            "byteOffset" : 7248
        },
        {
            "buffer" : 0,
            "byteLength" : 240,
            "byteOffset" : 7608
        },
        {
            "buffer" : 0,
            "byteLength" : 120,
            "byteOffset" : 7848
        },
        {
            "buffer" : 0,
            "byteLength" : 4,
            "byteOffset" : 7968
        },
        {
            "buffer" : 0,
            "byteLength" : 12,
            "byteOffset" : 7972
        },
        {
            "buffer" : 0,
            "byteLength" : 40,
            "byteOffset" : 7984
        },
        {
            "buffer" : 0,
            "byteLength" : 160,
            "byteOffset" : 8024
        },
        {
            "buffer" : 0,
            "byteLength" : 120,
            "byteOffset" : 8184
        },
        {
            "buffer" : 0,
            "byteLength" : 360,
            "byteOffset" : 8304
        },
        {
            "buffer" : 0,
            "byteLength" : 16,
            "byteOffset" : 8664
        },
        {
            "buffer" : 0,
            "byteLength" : 12,
            "byteOffset" : 8680
        },
        {
            "buffer" : 0,
            "byteLength" : 160,
            "byteOffset" : 8692
        }
    ],
    "buffers" : [
        {
            "byteLength" : 8852,
            "uri" : "data:application/octet-stream;base64,"
        }
    ]
}
