{
    "asset" : {
        "generator" : "Khronos glTF Blender I/O v1.0.5",
        "version" : "2.0"
    },
    "scene" : 0,
    "scenes" : [
        {
            "name" : "Scene",
            "nodes" : [
                0
            ]
        }
    ],
    "nodes" : [
        {
            "mesh" : 0,
            "name" : "DoubleDoorHole",
            "translation" : [
                0.5,
                0,
                -0.5
            ]
        }
    ],
    "materials" : [
        {
            "doubleSided" : true,
            "name" : "WallConcrete",
            "pbrMetallicRoughness" : {
                "baseColorFactor" : [
                    0.10246714949607849,
                    0.09495581686496735,
                    0.09214773029088974,
                    1
                ],
                "metallicFactor" : 0,
                "roughnessFactor" : 0.5
            }
        },
        {
            "doubleSided" : true,
            "name" : "WallPaint1",
            "pbrMetallicRoughness" : {
                "baseColorTexture" : {
                    "index" : 0,
                    "texCoord" : 0
                },
                "metallicFactor" : 0,
                "roughnessFactor" : 0.5
            }
        },
        {
            "doubleSided" : true,
            "name" : "Sides",
            "pbrMetallicRoughness" : {
                "baseColorFactor" : [
                    1,
                    0,
                    0.6142311096191406,
                    0
                ],
                "metallicFactor" : 0,
                "roughnessFactor" : 0.5
            }
        }
    ],
    "meshes" : [
        {
            "name" : "Plane.006",
            "primitives" : [
                {
                    "attributes" : {
                        "POSITION" : 0,
                        "NORMAL" : 1,
                        "TEXCOORD_0" : 2
                    },
                    "indices" : 3,
                    "material" : 0
                },
                {
                    "attributes" : {
                        "POSITION" : 4,
                        "NORMAL" : 5,
                        "TEXCOORD_0" : 6
                    },
                    "indices" : 7,
                    "material" : 1
                },
                {
                    "attributes" : {
                        "POSITION" : 8,
                        "NORMAL" : 9,
                        "TEXCOORD_0" : 10
                    },
                    "indices" : 11,
                    "material" : 2
                }
            ]
        }
    ],
    "textures" : [
        {
            "source" : 0
        }
    ],
    "images" : [
        {
            "bufferView" : 8,
            "mimeType" : "image/png",
            "name" : "wall_paint"
        }
    ],
    "accessors" : [
        {
            "bufferView" : 0,
            "componentType" : 5126,
            "count" : 66,
            "max" : [
                1.5,
                2.5999999046325684,
                -0.4399999976158142
            ],
            "min" : [
                -0.5,
                0,
                -0.5000001192092896
            ],
            "type" : "VEC3"
        },
        {
            "bufferView" : 1,
            "componentType" : 5126,
            "count" : 66,
            "type" : "VEC3"
        },
        {
            "bufferView" : 2,
            "componentType" : 5126,
            "count" : 66,
            "type" : "VEC2"
        },
        {
            "bufferView" : 3,
            "componentType" : 5123,
            "count" : 108,
            "type" : "SCALAR"
        },
        {
            "bufferView" : 4,
            "componentType" : 5126,
            "count" : 28,
            "max" : [
                1.5,
                2.5999999046325684,
                -0.5
            ],
            "min" : [
                -0.5,
                0,
                -0.5000001192092896
            ],
            "type" : "VEC3"
        },
        {
            "bufferView" : 5,
            "componentType" : 5126,
            "count" : 28,
            "type" : "VEC3"
        },
        {
            "bufferView" : 6,
            "componentType" : 5126,
            "count" : 28,
            "type" : "VEC2"
        },
        {
            "bufferView" : 7,
            "componentType" : 5123,
            "count" : 48,
            "type" : "SCALAR"
        },
        {
            "bufferView" : 9,
            "componentType" : 5126,
            "count" : 8,
            "max" : [
                1.5,
                2.5999999046325684,
                -0.4399999976158142
            ],
            "min" : [
                -0.5,
                0,
                -0.5
            ],
            "type" : "VEC3"
        },
        {
            "bufferView" : 10,
            "componentType" : 5126,
            "count" : 8,
            "type" : "VEC3"
        },
        {
            "bufferView" : 11,
            "componentType" : 5126,
            "count" : 8,
            "type" : "VEC2"
        },
        {
            "bufferView" : 12,
            "componentType" : 5123,
            "count" : 12,
            "type" : "SCALAR"
        }
    ],
    "bufferViews" : [
        {
            "buffer" : 0,
            "byteLength" : 792,
            "byteOffset" : 0
        },
        {
            "buffer" : 0,
            "byteLength" : 792,
            "byteOffset" : 792
        },
        {
            "buffer" : 0,
            "byteLength" : 528,
            "byteOffset" : 1584
        },
        {
            "buffer" : 0,
            "byteLength" : 216,
            "byteOffset" : 2112
        },
        {
            "buffer" : 0,
            "byteLength" : 336,
            "byteOffset" : 2328
        },
        {
            "buffer" : 0,
            "byteLength" : 336,
            "byteOffset" : 2664
        },
        {
            "buffer" : 0,
            "byteLength" : 224,
            "byteOffset" : 3000
        },
        {
            "buffer" : 0,
            "byteLength" : 96,
            "byteOffset" : 3224
        },
        {
            "buffer" : 0,
            "byteLength" : 20966,
            "byteOffset" : 3320
        },
        {
            "buffer" : 0,
            "byteLength" : 96,
            "byteOffset" : 24288
        },
        {
            "buffer" : 0,
            "byteLength" : 96,
            "byteOffset" : 24384
        },
        {
            "buffer" : 0,
            "byteLength" : 64,
            "byteOffset" : 24480
        },
        {
            "buffer" : 0,
            "byteLength" : 24,
            "byteOffset" : 24544
        }
    ],
    "buffers" : [
        {
            "byteLength" : 24568,
            "uri" : "data:application/octet-stream;base64,"
        }
    ]
}
