{
    "asset" : {
        "generator" : "Khronos glTF Blender I/O v1.0.5",
        "version" : "2.0"
    },
    "scene" : 0,
    "scenes" : [
        {
            "name" : "Scene",
            "nodes" : [
                0
            ]
        }
    ],
    "nodes" : [
        {
            "mesh" : 0,
            "name" : "Rim"
        }
    ],
    "materials" : [
        {
            "doubleSided" : true,
            "name" : "Yellow",
            "pbrMetallicRoughness" : {
                "baseColorFactor" : [
                    0.8000000715255737,
                    0.6468655467033386,
                    0.020694594830274582,
                    1
                ],
                "metallicFactor" : 0,
                "roughnessFactor" : 0.10000000149011612
            }
        },
        {
            "doubleSided" : true,
            "name" : "Black",
            "pbrMetallicRoughness" : {
                "baseColorFactor" : [
                    0.009018203243613243,
                    0.009018203243613243,
                    0.009018203243613243,
                    1
                ],
                "metallicFactor" : 0,
                "roughnessFactor" : 0.5
            }
        }
    ],
    "meshes" : [
        {
            "name" : "Cylinder",
            "primitives" : [
                {
                    "attributes" : {
                        "POSITION" : 0,
                        "NORMAL" : 1,
                        "TEXCOORD_0" : 2
                    },
                    "indices" : 3,
                    "material" : 0
                },
                {
                    "attributes" : {
                        "POSITION" : 4,
                        "NORMAL" : 5,
                        "TEXCOORD_0" : 6
                    },
                    "indices" : 7,
                    "material" : 1
                }
            ]
        }
    ],
    "accessors" : [
        {
            "bufferView" : 0,
            "componentType" : 5126,
            "count" : 144,
            "max" : [
                0.3398858308792114,
                0.1177247017621994,
                0.33988580107688904
            ],
            "min" : [
                -0.33988580107688904,
                -0.1177247017621994,
                -0.33988574147224426
            ],
            "type" : "VEC3"
        },
        {
            "bufferView" : 1,
            "componentType" : 5126,
            "count" : 144,
            "type" : "VEC3"
        },
        {
            "bufferView" : 2,
            "componentType" : 5126,
            "count" : 144,
            "type" : "VEC2"
        },
        {
            "bufferView" : 3,
            "componentType" : 5123,
            "count" : 216,
            "type" : "SCALAR"
        },
        {
            "bufferView" : 4,
            "componentType" : 5126,
            "count" : 304,
            "max" : [
                0.3531750440597534,
                0.1177247017621994,
                0.35317501425743103
            ],
            "min" : [
                -0.3531750440597534,
                -0.1177247017621994,
                -0.35317501425743103
            ],
            "type" : "VEC3"
        },
        {
            "bufferView" : 5,
            "componentType" : 5126,
            "count" : 304,
            "type" : "VEC3"
        },
        {
            "bufferView" : 6,
            "componentType" : 5126,
            "count" : 304,
            "type" : "VEC2"
        },
        {
            "bufferView" : 7,
            "componentType" : 5123,
            "count" : 456,
            "type" : "SCALAR"
        }
    ],
    "bufferViews" : [
        {
            "buffer" : 0,
            "byteLength" : 1728,
            "byteOffset" : 0
        },
        {
            "buffer" : 0,
            "byteLength" : 1728,
            "byteOffset" : 1728
        },
        {
            "buffer" : 0,
            "byteLength" : 1152,
            "byteOffset" : 3456
        },
        {
            "buffer" : 0,
            "byteLength" : 432,
            "byteOffset" : 4608
        },
        {
            "buffer" : 0,
            "byteLength" : 3648,
            "byteOffset" : 5040
        },
        {
            "buffer" : 0,
            "byteLength" : 3648,
            "byteOffset" : 8688
        },
        {
            "buffer" : 0,
            "byteLength" : 2432,
            "byteOffset" : 12336
        },
        {
            "buffer" : 0,
            "byteLength" : 912,
            "byteOffset" : 14768
        }
    ],
    "buffers" : [
        {
            "byteLength" : 15680,
            "uri" : "data:application/octet-stream;base64,"
        }
    ]
}
